<svg width="18" height="20" viewBox="0 0 18 20" fill="none" xmlns="http://www.w3.org/2000/svg">
<path d="M17.9658 11.9058L17.9487 11.7101C17.6738 8.72768 16.0073 6.85802 14.5371 5.2089C13.1758 3.68185 12 2.36315 12 0.417401C12 0.261157 11.895 0.118349 11.7285 0.0467114C11.5615 -0.0253172 11.3608 -0.0135208 11.209 0.078468C9.00098 1.39514 7.1587 3.61431 6.51516 5.73174C6.06839 7.2059 6.00928 8.86314 6.00098 9.95767C3.96192 9.59472 3.50002 7.0529 3.49514 7.02524C3.47217 6.89341 3.37552 6.77865 3.23489 6.716C3.09281 6.65416 2.9258 6.64967 2.78175 6.70908C2.67483 6.75221 0.157219 7.81826 0.0107342 12.0751C0.000468576 12.2167 0 12.3583 0 12.5003C0 16.6355 4.03758 20 9 20C13.9624 20 18 16.6355 18 12.5003C18 12.2928 17.9829 12.0991 17.9658 11.9058ZM9 19.1667C7.34569 19.1667 6 17.9721 6 16.5036C6 16.4536 5.99953 16.4031 6.00389 16.3413C6.02391 15.722 6.16505 15.2993 6.31983 15.0181C6.60989 15.5373 7.12889 16.0146 7.97072 16.0146C8.24709 16.0146 8.47073 15.8282 8.47073 15.5979C8.47073 15.0046 8.48541 14.3203 8.66264 13.7026C8.82037 13.1545 9.1973 12.5723 9.67486 12.1052C9.88725 12.7114 10.3013 13.2021 10.7056 13.6811C11.2843 14.3663 11.8824 15.0746 11.9874 16.2827C11.9937 16.3543 12.0001 16.4263 12.0001 16.5036C12 17.9721 10.6543 19.1667 9 19.1667ZM12.1599 18.6223C12.6789 18.0325 13 17.3035 13 16.5036C13 16.4056 12.9927 16.3144 12.978 16.144C12.8594 14.7837 12.1499 13.9431 11.5235 13.2014C10.9898 12.5699 10.5293 12.0243 10.5293 11.2504C10.5293 11.0921 10.4219 10.9476 10.252 10.8773C10.083 10.8064 9.87895 10.8223 9.72806 10.918C8.76909 11.5218 7.96927 12.5382 7.68998 13.5086C7.54739 14.0062 7.49761 14.5445 7.48003 14.9872C7.13334 14.6764 7.02591 14.1002 7.02497 14.0925C7.00252 13.9586 6.90389 13.8418 6.75984 13.7796C6.61678 13.7178 6.44541 13.7161 6.30136 13.778C6.17536 13.8317 5.06845 14.3606 5.00498 16.3063C5.00058 16.3723 5.00011 16.4382 5.00011 16.5037C5.00011 17.3035 5.3212 18.0326 5.8402 18.6224C2.99658 17.5992 1.00012 15.2411 1.00012 12.5004C1.00012 12.3754 0.999656 12.2509 1.00987 12.1122C1.0958 9.61468 2.05481 8.37613 2.68078 7.82971C3.11728 9.13173 4.26084 10.8337 6.50011 10.8337C6.77648 10.8337 7.00012 10.6474 7.00012 10.4171C7.00012 9.02267 7.03772 7.4114 7.485 5.93603C7.9928 4.26452 9.38391 2.45959 11.0631 1.23772C11.3419 3.02234 12.5084 4.33089 13.7345 5.70572C15.192 7.34058 16.6989 9.03119 16.9513 11.7687L16.9684 11.9681C16.984 12.1415 17.0002 12.3144 17.0002 12.5003C17 15.2411 15.0036 17.5991 12.1599 18.6223Z" fill="#919191"/>
</svg>
