<svg width="17" height="8" viewBox="0 0 17 8" fill="none" xmlns="http://www.w3.org/2000/svg">
<g clip-path="url(#clip0_17_427)">
<path d="M15.3998 4.56839C15.3643 4.60885 15.3257 4.643 15.2852 4.6727L12.5722 7.77309C12.3075 8.07543 11.8781 8.07557 11.6134 7.77295C11.3486 7.47047 11.3486 6.97988 11.6134 6.67712L13.9498 4.00691L11.6013 1.32278C11.3365 1.02031 11.3365 0.529859 11.6013 0.226951C11.7338 0.0754256 11.9074 -5.00679e-05 12.0807 -5.00679e-05C12.2539 -5.00679e-05 12.4277 0.0754256 12.56 0.226951L15.2852 3.34169C15.3257 3.37139 15.3645 3.40554 15.3998 3.44601C15.5351 3.60069 15.6004 3.80444 15.5972 4.0072C15.6004 4.20995 15.5351 4.41356 15.3998 4.56839Z" fill="black"/>
</g>
<rect y="3" width="10" height="2" rx="1" fill="black"/>
<defs>
<clipPath id="clip0_17_427">
<rect width="7" height="8" fill="white" transform="matrix(-1 0 0 -1 17 8)"/>
</clipPath>
</defs>
</svg>
