<svg width="18" height="22" viewBox="0 0 18 22" fill="none" xmlns="http://www.w3.org/2000/svg">
<path d="M17.5714 3.66655H15.4286V0.366531C15.4285 0.164039 15.2365 -9.16289e-05 14.9998 3.83786e-08C14.959 3.83786e-08 14.9184 0.00504174 14.8791 0.014896L0.307714 3.68159C0.299143 3.68159 0.292714 3.68892 0.284143 3.69149C0.262339 3.69905 0.241232 3.70812 0.221143 3.71862C0.195214 3.73049 0.170839 3.74465 0.148286 3.76079C0.131678 3.77399 0.116196 3.78819 0.102 3.80332C0.0831964 3.8228 0.0666965 3.84379 0.0527143 3.86602C0.0425893 3.88316 0.0339642 3.90095 0.0269999 3.91919C0.0170892 3.94499 0.0107143 3.97167 0.00814288 3.99875C0.00814288 4.01085 0 4.02112 0 4.03322V21.6333C0 21.8358 0.191893 22 0.428571 22H17.5714C17.8081 22 18 21.8358 18 21.6333V4.03322C18 3.83068 17.8082 3.66655 17.5714 3.66655ZM14.5714 0.856401V3.66655H3.40457L14.5714 0.856401ZM17.1429 21.2667H0.857143V4.39989H17.1429V21.2667Z" fill="#919191"/>
<path d="M15.8571 7.83325H2.1428C1.90613 7.83325 1.71423 7.99743 1.71423 8.19992C1.71423 8.40241 1.90613 8.56659 2.1428 8.56659H15.8571C16.0938 8.56659 16.2857 8.40241 16.2857 8.19992C16.2857 7.99743 16.0938 7.83325 15.8571 7.83325Z" fill="#919191"/>
<path d="M15.8571 13.0333H2.1428C1.90613 13.0333 1.71423 13.1975 1.71423 13.4C1.71423 13.6025 1.90613 13.7667 2.1428 13.7667H15.8571C16.0938 13.7667 16.2857 13.6025 16.2857 13.4C16.2857 13.1975 16.0938 13.0333 15.8571 13.0333Z" fill="#919191"/>
<path d="M15.8571 18.2333H2.1428C1.90613 18.2333 1.71423 18.3975 1.71423 18.5999C1.71423 18.8024 1.90613 18.9666 2.1428 18.9666H15.8571C16.0938 18.9666 16.2857 18.8024 16.2857 18.5999C16.2857 18.3975 16.0938 18.2333 15.8571 18.2333Z" fill="#919191"/>
</svg>
