<svg width="18" height="18" viewBox="0 0 18 18" fill="none" xmlns="http://www.w3.org/2000/svg">
<g clip-path="url(#clip0_17_345)">
<path d="M17.8293 17.0207L13.182 12.4477C14.399 11.1255 15.1467 9.37682 15.1467 7.45261C15.1461 3.33639 11.7557 0 7.5731 0C3.39049 0 7.62939e-05 3.33639 7.62939e-05 7.45261C7.62939e-05 11.5688 3.39049 14.9052 7.5731 14.9052C9.38028 14.9052 11.0378 14.2802 12.3397 13.241L17.0051 17.832C17.2324 18.056 17.6014 18.056 17.8288 17.832C18.0566 17.6081 18.0566 17.2447 17.8293 17.0207ZM7.5731 13.7586C4.03416 13.7586 1.16529 10.9353 1.16529 7.45261C1.16529 3.96991 4.03416 1.14663 7.5731 1.14663C11.1121 1.14663 13.9809 3.96991 13.9809 7.45261C13.9809 10.9353 11.1121 13.7586 7.5731 13.7586Z" fill="black"/>
</g>
<defs>
<clipPath id="clip0_17_345">
<rect width="18" height="18" fill="white"/>
</clipPath>
</defs>
</svg>
