<svg width="18" height="18" viewBox="0 0 18 18" fill="none" xmlns="http://www.w3.org/2000/svg">
<path d="M16.8261 7.04348H15.361C15.2382 6.64239 15.0773 6.255 14.8821 5.886L15.9171 4.851C16.1386 4.62952 16.2607 4.33448 16.2607 4.02026C16.2607 3.70643 16.1386 3.41139 15.9171 3.18991L14.8097 2.08252C14.3671 1.63996 13.5923 1.63878 13.149 2.08252L12.114 3.11752C11.7454 2.92226 11.3576 2.76183 10.9565 2.63857V1.17391C10.9565 0.526696 10.4298 0 9.78261 0H8.21739C7.57017 0 7.04348 0.526696 7.04348 1.17391V2.63896C6.64239 2.76222 6.255 2.92265 5.886 3.11791L4.85061 2.08291C4.39278 1.62509 3.64774 1.62509 3.18991 2.08291L2.08213 3.1903C1.6247 3.64813 1.6247 4.39317 2.08213 4.851L3.11713 5.88639C2.92187 6.255 2.76143 6.64278 2.63817 7.04387H1.17391C0.526696 7.04387 0 7.57056 0 8.21778V9.783C0 10.4298 0.526696 10.9565 1.17391 10.9565H2.63896C2.76222 11.3576 2.92265 11.745 3.11791 12.114L2.08291 13.1494C1.62509 13.6072 1.62509 14.3523 2.08291 14.8101L3.1903 15.9179C3.64813 16.3753 4.39317 16.3753 4.851 15.9179L5.88639 14.8829C6.255 15.0781 6.64278 15.2386 7.04387 15.3618V16.8261C7.04387 17.4733 7.57056 18 8.21778 18H9.783C10.4302 18 10.9569 17.4733 10.9569 16.8261V15.361C11.358 15.2378 11.7458 15.0773 12.1144 14.8821L13.1494 15.9175C13.5931 16.3608 14.3679 16.36 14.8101 15.9175L15.9175 14.8101C16.139 14.5886 16.261 14.2936 16.261 13.9797C16.261 13.6655 16.139 13.3709 15.9175 13.1494L14.8825 12.114C15.0777 11.7454 15.2382 11.3576 15.3614 10.9565H16.8261C17.4733 10.9565 18 10.4298 18 9.78261V8.21739C18 7.57017 17.4733 7.04348 16.8261 7.04348ZM17.2174 9.78261C17.2174 9.99822 17.0421 10.1739 16.8261 10.1739H15.0652C14.8868 10.1739 14.731 10.2948 14.6864 10.4674C14.5479 11.0015 14.337 11.5114 14.0588 11.9825C13.9684 12.1363 13.993 12.332 14.119 12.458L15.3634 13.7027C15.437 13.7763 15.4777 13.8745 15.4777 13.9797C15.4777 14.085 15.437 14.1832 15.3634 14.2568L14.256 15.3642C14.1089 15.5113 13.8494 15.5113 13.7019 15.3642L12.4576 14.1198C12.3316 13.9934 12.1359 13.9692 11.9817 14.0596C11.5114 14.3374 11.0015 14.5487 10.467 14.6868C10.2948 14.731 10.1739 14.8868 10.1739 15.0652V16.8261C10.1739 17.0417 9.99861 17.2174 9.78261 17.2174H8.21739C8.00178 17.2174 7.82609 17.0417 7.82609 16.8261V15.0652C7.82609 14.8868 7.70517 14.731 7.53261 14.6864C6.99848 14.5483 6.48861 14.3374 6.01748 14.0592C5.95565 14.0224 5.88717 14.0048 5.8187 14.0048C5.71735 14.0048 5.61717 14.0439 5.54165 14.1194L4.2973 15.3638C4.1443 15.5164 3.89622 15.5164 3.74322 15.3638L2.63583 14.2564C2.48283 14.1034 2.48283 13.8549 2.63583 13.7023L3.88017 12.458C4.00657 12.3316 4.03122 12.1359 3.94043 11.9825C3.66261 11.5114 3.4513 11.0019 3.31317 10.4674C3.26896 10.2948 3.11322 10.1739 2.93478 10.1739H1.17391C0.958304 10.1739 0.782609 9.99822 0.782609 9.78261V8.21739C0.782609 8.00178 0.958304 7.82609 1.17391 7.82609H2.93478C3.11322 7.82609 3.26896 7.70517 3.31357 7.53261C3.4517 6.99848 3.66261 6.48861 3.94083 6.01748C4.03161 5.8637 4.00696 5.66804 3.88057 5.54204L2.63622 4.2977C2.48361 4.14509 2.48361 3.89661 2.63622 3.74361L3.74361 2.63622C3.89661 2.48322 4.1447 2.48361 4.2977 2.63622L5.54204 3.88057C5.66843 4.00696 5.8637 4.032 6.01748 3.94083C6.48861 3.663 6.99809 3.4517 7.53261 3.31357C7.70517 3.26896 7.82609 3.11322 7.82609 2.93478V1.17391C7.82609 0.958304 8.00178 0.782609 8.21739 0.782609H9.78261C9.99861 0.782609 10.1739 0.958304 10.1739 1.17391V2.93478C10.1739 3.11322 10.2948 3.26896 10.4674 3.31357C11.0019 3.4517 11.5118 3.663 11.9821 3.94083C12.1363 4.03161 12.332 4.00735 12.458 3.88057L13.7023 2.63622C13.8498 2.4883 14.1093 2.4887 14.2564 2.63622L15.3638 3.74361C15.4373 3.81717 15.478 3.91578 15.478 4.02065C15.478 4.12552 15.4373 4.22413 15.3638 4.2977L14.1194 5.54204C13.9934 5.66843 13.9684 5.86409 14.0592 6.01748C14.3374 6.48861 14.5483 6.99809 14.6868 7.53261C14.731 7.70517 14.8868 7.82609 15.0652 7.82609H16.8261C17.0421 7.82609 17.2174 8.00178 17.2174 8.21739V9.78261Z" fill="#919191"/>
<path d="M9.00001 5.47827C7.05836 5.47827 5.47827 7.05836 5.47827 9.00001C5.47827 10.9417 7.05836 12.5217 9.00001 12.5217C10.9421 12.5217 12.5217 10.9417 12.5217 9.00001C12.5217 7.05836 10.9421 5.47827 9.00001 5.47827ZM9.00001 11.7391C7.48958 11.7391 6.26088 10.5104 6.26088 9.00001C6.26088 7.48958 7.48958 6.26088 9.00001 6.26088C10.5101 6.26088 11.7391 7.48958 11.7391 9.00001C11.7391 10.5104 10.5101 11.7391 9.00001 11.7391Z" fill="#919191"/>
</svg>
