<svg width="18" height="18" viewBox="0 0 18 18" fill="none" xmlns="http://www.w3.org/2000/svg">
<path d="M9.81839 0.839174L9.81831 0.839089C9.59903 0.619737 9.31007 0.5 9.00011 0.5C8.69007 0.5 8.40109 0.619665 8.1817 0.83903L7.82816 0.485458L8.1817 0.839033L0.844129 8.1757C0.844129 8.1757 0.843892 8.17594 0.843322 8.17652L0.842217 8.17763L0.83582 8.18416C0.387261 8.63526 0.388147 9.36821 0.837963 9.81798L0.838045 9.81807C1.04394 10.024 1.31442 10.1428 1.60557 10.1553L1.61915 10.1559L1.63268 10.1572L1.63523 10.1573H1.9279H2.4279V10.6573V16.0608C2.4279 16.8538 3.07402 17.5 3.8676 17.5H6.74054C6.7557 17.5 6.76794 17.4877 6.76794 17.4727V13.2363C6.76794 12.4722 7.38877 11.8515 8.15284 11.8515H9.84738C10.6115 11.8515 11.2323 12.4722 11.2323 13.2363V17.4727C11.2323 17.4877 11.2445 17.5 11.2597 17.5H14.1326C14.9262 17.5 15.5723 16.8538 15.5723 16.0608V10.6573V10.1573H16.0723H16.3437C16.6536 10.1573 16.9426 10.0376 17.1622 9.81818C17.6123 9.36759 17.6126 8.63367 17.1629 8.18269L9.81839 0.839174ZM9.81839 0.839174L17.1617 8.18145L17.1617 8.18147L17.1626 8.18233L9.81839 0.839174Z" stroke="white"/>
</svg>
